<svg width="128" height="128" viewBox="0 0 128 128" fill="none" xmlns="http://www.w3.org/2000/svg">
<rect width="128" height="128" fill="white"/>
<path d="M47.6944 55.404V41H61.6109V50.909L52.1047 57.6777C50.2569 58.9935 47.6944 57.6724 47.6944 55.404Z" fill="black"/>
<path d="M89.3641 41L66.0263 57.6985C64.1791 59.0203 61.6108 57.6999 61.6108 55.4285V50.9352L75.4874 41.0062L89.3641 41Z" fill="black"/>
<path fill-rule="evenodd" clip-rule="evenodd" d="M52.2283 73.4639V76.1142H57.6153V77.246H55.2199C53.4286 77.246 51.4581 78.422 51.6626 80.9878C51.8074 82.6745 53.4658 83.8624 55.1124 83.8624C56.4216 83.8624 57.3471 83.4229 58.0203 82.6863V83.6588H60.6136V78.4407C60.6136 75.6944 58.347 73.4639 55.5558 73.4639H52.2283ZM55.6568 79.4514L57.6153 79.4403V80.727C57.5211 81.0916 56.8678 81.6272 56.0658 81.6272C55.1495 81.6272 54.467 81.1898 54.467 80.5393C54.467 79.8888 54.9504 79.4514 55.6568 79.4514Z" fill="black"/>
<path fill-rule="evenodd" clip-rule="evenodd" d="M97.0363 73.4639V76.1142H102.423V77.246H100.028C98.2367 77.246 96.2662 78.422 96.4707 80.9878C96.6154 82.6745 98.2739 83.8624 99.9204 83.8624C101.23 83.8624 102.155 83.4229 102.828 82.6863V83.6588H105.422V78.4407C105.422 75.6944 103.155 73.4639 100.364 73.4639H97.0363ZM100.465 79.4514L102.423 79.4403V80.727C102.329 81.0916 101.676 81.6272 100.874 81.6272C99.9576 81.6272 99.2764 81.1898 99.2764 80.5393C99.2764 79.8888 99.7597 79.4514 100.465 79.4514Z" fill="black"/>
<path d="M65.4987 76.1384V81.0408H67.8901V83.6896C64.9317 83.6896 62.5283 81.3259 62.5283 78.4157V76.1384H61.385V73.4637H62.5283V70.0654H65.4987V73.4637H67.8901V76.1384H65.4987Z" fill="black"/>
<path d="M82.8111 83.6588L79.4344 73.4639H82.4818L84.3421 80.4428L86.3883 73.4639H88.8408L90.8552 80.4494L92.7035 73.4639H95.7788L92.3715 83.6588H89.2631L87.5794 77.905L85.8983 83.6588H82.8111Z" fill="black"/>
<path d="M111.519 87.0414L116.06 73.4639L113.008 73.4642L110.837 80.4494L108.667 73.4642H105.392L108.822 83.6924H109.769L108.723 87.0414H111.519Z" fill="black"/>
<path fill-rule="evenodd" clip-rule="evenodd" d="M15.1085 70.5045H12V83.6895H15.1085V83.1508C15.7517 83.5583 16.5176 83.8382 17.4183 83.8929C20.087 84.0553 22.9314 81.868 22.9314 78.5993C22.9314 75.4137 20.6584 73.2281 17.4183 73.3058C16.5523 73.3266 15.7773 73.5507 15.1085 73.9152V70.5045ZM14.546 78.5768C14.546 77.0096 15.6427 75.7296 17.2878 75.7296C18.9863 75.7296 20.1633 77.0216 20.1633 78.5887C20.1633 80.1558 18.9863 81.4357 17.2878 81.4357C15.6294 81.4357 14.546 80.1439 14.546 78.5768Z" fill="black"/>
<path d="M50.2829 76.296V83.6895H47.3776V82.2701C46.2516 83.2839 44.7566 83.8931 43.0066 83.8931C38.5537 83.8931 35.784 80.7299 35.784 76.8232C35.784 72.9166 38.5775 69.7534 43.0186 69.7534C46.0511 69.7534 48.3907 71.3114 49.5008 73.5893C49.6283 73.8956 49.7066 74.1669 49.7518 74.416H46.4999C45.9141 73.2437 44.1758 72.5769 43.1127 72.5769C40.7843 72.5769 38.896 74.472 38.896 76.8232C38.896 79.1745 40.7843 81.0696 43.1012 81.0696C44.6971 81.0696 46.1348 80.1737 46.8823 78.8567H43.4181V76.296H50.2829Z" fill="black"/>
<path fill-rule="evenodd" clip-rule="evenodd" d="M71.4115 79.3927C71.7714 80.5617 72.8416 81.41 74.1071 81.41C74.9489 81.41 75.7044 81.0346 76.2223 80.439H79.2219C78.4225 82.4327 76.4095 83.8473 74.0513 83.8473C70.9933 83.8473 68.5142 81.4665 68.5142 78.5296C68.5142 75.5927 70.9933 73.2117 74.0513 73.2117C77.1106 73.2117 79.5897 75.5927 79.5897 78.5296C79.5897 78.8176 79.5804 79.1054 79.5605 79.3927H71.4115ZM76.5782 77.133C76.0962 76.2478 75.1707 75.649 74.1071 75.649C73.0448 75.649 72.1179 76.2478 71.6359 77.133H76.5782Z" fill="black"/>
<path fill-rule="evenodd" clip-rule="evenodd" d="M26.667 79.3927C27.0266 80.5617 28.0973 81.41 29.3624 81.41C30.204 81.41 30.9595 81.0346 31.477 80.439H34.4774C33.6783 82.4327 31.6646 83.8473 29.307 83.8473C26.2483 83.8473 23.7688 81.4665 23.7688 78.5296C23.7688 75.5927 26.2483 73.2117 29.307 73.2117C32.3656 73.2117 34.845 75.5927 34.845 78.5296C34.845 78.8176 34.8361 79.1054 34.8154 79.3927H26.667ZM31.8332 77.133C31.3512 76.2478 30.4253 75.649 29.3624 75.649C28.2993 75.649 27.3734 76.2478 26.8915 77.133H31.8332Z" fill="black"/>
</svg>
